{
	"asset":{
		"generator":"Khronos glTF Blender I/O v4.1.63",
		"version":"2.0"
	},
	"scene":0,
	"scenes":[
		{
			"name":"Scene",
			"nodes":[
				0
			]
		}
	],
	"nodes":[
		{
			"mesh":0,
			"name":"pasted__pCube81_Pawnshop_0",
			"scale":[
				0.004999999888241291,
				0.005000000819563866,
				0.005000000819563866
			]
		}
	],
	"materials":[
		{
			"doubleSided":true,
			"name":"Pawnshop.001",
			"pbrMetallicRoughness":{
				"baseColorTexture":{
					"index":0
				},
				"metallicFactor":0,
				"roughnessFactor":0.3400000035762787
			}
		},
		{
			"doubleSided":true,
			"emissiveFactor":[
				0.699999988079071,
				0.699999988079071,
				0.699999988079071
			],
			"emissiveTexture":{
				"index":1
			},
			"name":"Pawnshop1GLOW.001",
			"pbrMetallicRoughness":{
				"baseColorTexture":{
					"index":2
				},
				"metallicFactor":0,
				"roughnessFactor":0.20000000298023224
			}
		}
	],
	"meshes":[
		{
			"name":"pasted__pCube81_Pawnshop_0.003",
			"primitives":[
				{
					"attributes":{
						"POSITION":0,
						"NORMAL":1,
						"TEXCOORD_0":2
					},
					"indices":3,
					"material":0
				},
				{
					"attributes":{
						"POSITION":4,
						"NORMAL":5,
						"TEXCOORD_0":6
					},
					"indices":7,
					"material":1
				}
			]
		}
	],
	"textures":[
		{
			"sampler":0,
			"source":0
		},
		{
			"sampler":0,
			"source":0
		},
		{
			"sampler":0,
			"source":0
		}
	],
	"images":[
		{
			"mimeType":"image/png",
			"name":"Pawnshop_baseColor",
			"uri":"Pawnshop_baseColor.png"
		}
	],
	"accessors":[
		{
			"bufferView":0,
			"componentType":5126,
			"count":356,
			"max":[
				889.5542602539062,
				1537.7099609375,
				1040.131591796875
			],
			"min":[
				-867.7133178710938,
				-0.59197998046875,
				-796.368408203125
			],
			"type":"VEC3"
		},
		{
			"bufferView":1,
			"componentType":5126,
			"count":356,
			"type":"VEC3"
		},
		{
			"bufferView":2,
			"componentType":5126,
			"count":356,
			"type":"VEC2"
		},
		{
			"bufferView":3,
			"componentType":5123,
			"count":606,
			"type":"SCALAR"
		},
		{
			"bufferView":4,
			"componentType":5126,
			"count":16,
			"max":[
				863.0093383789062,
				1330.106689453125,
				1040.131591796875
			],
			"min":[
				-598.3500366210938,
				104.3082275390625,
				738.736083984375
			],
			"type":"VEC3"
		},
		{
			"bufferView":5,
			"componentType":5126,
			"count":16,
			"type":"VEC3"
		},
		{
			"bufferView":6,
			"componentType":5126,
			"count":16,
			"type":"VEC2"
		},
		{
			"bufferView":7,
			"componentType":5123,
			"count":24,
			"type":"SCALAR"
		}
	],
	"bufferViews":[
		{
			"buffer":0,
			"byteLength":4272,
			"byteOffset":0,
			"target":34962
		},
		{
			"buffer":0,
			"byteLength":4272,
			"byteOffset":4272,
			"target":34962
		},
		{
			"buffer":0,
			"byteLength":2848,
			"byteOffset":8544,
			"target":34962
		},
		{
			"buffer":0,
			"byteLength":1212,
			"byteOffset":11392,
			"target":34963
		},
		{
			"buffer":0,
			"byteLength":192,
			"byteOffset":12604,
			"target":34962
		},
		{
			"buffer":0,
			"byteLength":192,
			"byteOffset":12796,
			"target":34962
		},
		{
			"buffer":0,
			"byteLength":128,
			"byteOffset":12988,
			"target":34962
		},
		{
			"buffer":0,
			"byteLength":48,
			"byteOffset":13116,
			"target":34963
		}
	],
	"samplers":[
		{
			"magFilter":9729,
			"minFilter":9987
		}
	],
	"buffers":[
		{
			"byteLength":13164,
			"uri":"scene.bin"
		}
	]
}
