{
  "accessors": [
    {
      "bufferView": 2,
      "componentType": 5126,
      "count": 26201,
      "max": [
        9.648673057556152,
        106.74808502197266,
        24.11845588684082
      ],
      "min": [
        -9.648674011230469,
        -26.797454833984375,
        -45.3297233581543
      ],
      "type": "VEC3"
    },
    {
      "bufferView": 2,
      "byteOffset": 314412,
      "componentType": 5126,
      "count": 26201,
      "max": [
        1.0,
        1.0,
        1.0
      ],
      "min": [
        -1.0,
        -1.0,
        -1.0
      ],
      "type": "VEC3"
    },
    {
      "bufferView": 3,
      "componentType": 5126,
      "count": 26201,
      "max": [
        1.0,
        1.0,
        1.0,
        1.0
      ],
      "min": [
        -1.0,
        -1.0,
        -1.0,
        -1.0
      ],
      "type": "VEC4"
    },
    {
      "bufferView": 1,
      "componentType": 5126,
      "count": 26201,
      "max": [
        0.9971047043800354,
        0.9981465339660645
      ],
      "min": [
        0.0029296278953552246,
        0.0029296427965164185
      ],
      "type": "VEC2"
    },
    {
      "bufferView": 0,
      "componentType": 5125,
      "count": 104622,
      "type": "SCALAR"
    },
    {
      "bufferView": 2,
      "byteOffset": 628824,
      "componentType": 5126,
      "count": 6,
      "max": [
        2.074265718460083,
        57.13409423828125,
        18.712066650390625
      ],
      "min": [
        -2.0796451568603516,
        54.98127365112305,
        14.240459442138672
      ],
      "type": "VEC3"
    },
    {
      "bufferView": 2,
      "byteOffset": 628896,
      "componentType": 5126,
      "count": 6,
      "max": [
        -3.9371759186224153e-08,
        0.9010981321334839,
        0.4343982934951782
      ],
      "min": [
        -3.9388250883121145e-08,
        0.9007208347320557,
        0.43361523747444153
      ],
      "type": "VEC3"
    },
    {
      "bufferView": 1,
      "byteOffset": 209608,
      "componentType": 5126,
      "count": 6,
      "max": [
        0.8818657994270325,
        0.9705926775932312
      ],
      "min": [
        0.0942893922328949,
        0.02963985502719879
      ],
      "type": "VEC2"
    },
    {
      "bufferView": 0,
      "byteOffset": 418488,
      "componentType": 5125,
      "count": 12,
      "type": "SCALAR"
    }
  ],
  "asset": {
    "extras": {
      "author": "Manny Ruiz (https://sketchfab.com/MannyRuiz)",
      "license": "CC-BY-4.0 (http://creativecommons.org/licenses/by/4.0/)",
      "source": "https://sketchfab.com/3d-models/plasma-rifle-bf439e8a1f8e41888d7e94592c352807",
      "title": "Plasma Rifle"
    },
    "generator": "Sketchfab-13.46.0",
    "version": "2.0"
  },
  "bufferViews": [
    {
      "buffer": 0,
      "byteLength": 418536,
      "name": "floatBufferViews",
      "target": 34963
    },
    {
      "buffer": 0,
      "byteLength": 209656,
      "byteOffset": 418536,
      "byteStride": 8,
      "name": "floatBufferViews",
      "target": 34962
    },
    {
      "buffer": 0,
      "byteLength": 628968,
      "byteOffset": 628192,
      "byteStride": 12,
      "name": "floatBufferViews",
      "target": 34962
    },
    {
      "buffer": 0,
      "byteLength": 419216,
      "byteOffset": 1257160,
      "byteStride": 16,
      "name": "floatBufferViews",
      "target": 34962
    }
  ],
  "buffers": [
    {
      "byteLength": 1676376,
      "uri": "scene.bin"
    }
  ],
  "images": [
    {
      "uri": "textures/material_baseColor.png"
    },
    {
      "uri": "textures/material_metallicRoughness.png"
    },
    {
      "uri": "textures/material_emissive.png"
    },
    {
      "uri": "textures/material_normal.png"
    },
    {
      "uri": "textures/sight_baseColor.png"
    },
    {
      "uri": "textures/sight_emissive.png"
    }
  ],
  "materials": [
    {
      "doubleSided": true,
      "emissiveFactor": [
        1.0,
        1.0,
        1.0
      ],
      "emissiveTexture": {
        "index": 2
      },
      "name": "material",
      "normalTexture": {
        "index": 3
      },
      "occlusionTexture": {
        "index": 1
      },
      "pbrMetallicRoughness": {
        "baseColorTexture": {
          "index": 0
        },
        "metallicRoughnessTexture": {
          "index": 1
        }
      }
    },
    {
      "alphaMode": "BLEND",
      "doubleSided": true,
      "emissiveFactor": [
        1.0,
        1.0,
        1.0
      ],
      "emissiveTexture": {
        "index": 5
      },
      "name": "sight",
      "pbrMetallicRoughness": {
        "baseColorTexture": {
          "index": 4
        }
      }
    }
  ],
  "meshes": [
    {
      "name": "Object016_Gun_0",
      "primitives": [
        {
          "attributes": {
            "NORMAL": 1,
            "POSITION": 0,
            "TANGENT": 2,
            "TEXCOORD_0": 3
          },
          "indices": 4,
          "material": 0,
          "mode": 4
        }
      ]
    },
    {
      "name": "Object017_sight_0",
      "primitives": [
        {
          "attributes": {
            "NORMAL": 6,
            "POSITION": 5,
            "TEXCOORD_0": 7
          },
          "indices": 8,
          "material": 1,
          "mode": 4
        }
      ]
    }
  ],
  "nodes": [
    {
      "children": [
        1
      ],
      "matrix": [
        1.0,
        0.0,
        0.0,
        0.0,
        0.0,
        2.220446049250313e-16,
        -1.0,
        0.0,
        0.0,
        1.0,
        2.220446049250313e-16,
        0.0,
        0.0,
        0.0,
        0.0,
        1.0
      ],
      "name": "Sketchfab_model"
    },
    {
      "children": [
        2
      ],
      "matrix": [
        0.02539999969303608,
        0.0,
        0.0,
        0.0,
        0.0,
        0.0,
        0.02539999969303608,
        0.0,
        0.0,
        -0.02539999969303608,
        0.0,
        0.0,
        0.0,
        0.0,
        0.0,
        1.0
      ],
      "name": "802759b618ff4b6e9afc5a57cac60e46.fbx"
    },
    {
      "children": [
        3,
        5
      ],
      "name": "RootNode"
    },
    {
      "children": [
        4
      ],
      "matrix": [
        1.0,
        0.0,
        0.0,
        0.0,
        0.0,
        2.220446049250313e-16,
        -1.0,
        0.0,
        0.0,
        1.0,
        2.220446049250313e-16,
        0.0,
        8.919193267822266,
        41.00154113769531,
        43.69841766357422,
        1.0
      ],
      "name": "Object016"
    },
    {
      "mesh": 0,
      "name": "Object016_Gun_0"
    },
    {
      "children": [
        6
      ],
      "matrix": [
        1.0,
        0.0,
        0.0,
        0.0,
        0.0,
        2.220446049250313e-16,
        -1.0,
        0.0,
        0.0,
        1.0,
        2.220446049250313e-16,
        0.0,
        8.919193267822266,
        41.00154113769531,
        43.69841766357422,
        1.0
      ],
      "name": "Object017"
    },
    {
      "mesh": 1,
      "name": "Object017_sight_0"
    }
  ],
  "samplers": [
    {
      "magFilter": 9729,
      "minFilter": 9987,
      "wrapS": 10497,
      "wrapT": 10497
    }
  ],
  "scene": 0,
  "scenes": [
    {
      "name": "Sketchfab_Scene",
      "nodes": [
        0
      ]
    }
  ],
  "textures": [
    {
      "sampler": 0,
      "source": 0
    },
    {
      "sampler": 0,
      "source": 1
    },
    {
      "sampler": 0,
      "source": 2
    },
    {
      "sampler": 0,
      "source": 3
    },
    {
      "sampler": 0,
      "source": 4
    },
    {
      "sampler": 0,
      "source": 5
    }
  ]
}
