{
	"asset":{
		"generator":"Khronos glTF Blender I/O v4.1.63",
		"version":"2.0"
	},
	"scene":0,
	"scenes":[
		{
			"name":"Scene",
			"nodes":[
				1
			]
		}
	],
	"nodes":[
		{
			"mesh":0,
			"name":"BD_ConcreteBlock1_RoadsGround_0.001",
			"scale":[
				0.004865726456046104,
				0.004865725990384817,
				0.004865725990384817
			]
		},
		{
			"children":[
				0
			],
			"name":"Clinic_bat"
		}
	],
	"materials":[
		{
			"doubleSided":true,
			"name":"Clinic",
			"pbrMetallicRoughness":{
				"baseColorTexture":{
					"index":0
				},
				"metallicFactor":0,
				"roughnessFactor":0.28999999165534973
			}
		}
	],
	"meshes":[
		{
			"name":"BD_ConcreteBlock1_RoadsGround_0.002",
			"primitives":[
				{
					"attributes":{
						"POSITION":0,
						"NORMAL":1,
						"TEXCOORD_0":2
					},
					"indices":3,
					"material":0
				}
			]
		}
	],
	"textures":[
		{
			"sampler":0,
			"source":0
		}
	],
	"images":[
		{
			"mimeType":"image/png",
			"name":"Clinic_baseColor",
			"uri":"Clinic_baseColor.png"
		}
	],
	"accessors":[
		{
			"bufferView":0,
			"componentType":5126,
			"count":1147,
			"max":[
				1825.38427734375,
				1952.9744873046875,
				935.376953125
			],
			"min":[
				-1939.697021484375,
				-1.561279296875,
				-925.0576171875
			],
			"type":"VEC3"
		},
		{
			"bufferView":1,
			"componentType":5126,
			"count":1147,
			"type":"VEC3"
		},
		{
			"bufferView":2,
			"componentType":5126,
			"count":1147,
			"type":"VEC2"
		},
		{
			"bufferView":3,
			"componentType":5123,
			"count":2004,
			"type":"SCALAR"
		}
	],
	"bufferViews":[
		{
			"buffer":0,
			"byteLength":13764,
			"byteOffset":0,
			"target":34962
		},
		{
			"buffer":0,
			"byteLength":13764,
			"byteOffset":13764,
			"target":34962
		},
		{
			"buffer":0,
			"byteLength":9176,
			"byteOffset":27528,
			"target":34962
		},
		{
			"buffer":0,
			"byteLength":4008,
			"byteOffset":36704,
			"target":34963
		}
	],
	"samplers":[
		{
			"magFilter":9729,
			"minFilter":9987
		}
	],
	"buffers":[
		{
			"byteLength":40712,
			"uri":"scene.bin"
		}
	]
}
