{
	"asset":{
		"generator":"Khronos glTF Blender I/O v4.1.63",
		"version":"2.0"
	},
	"scene":0,
	"scenes":[
		{
			"name":"Scene",
			"nodes":[
				1
			]
		}
	],
	"nodes":[
		{
			"mesh":0,
			"name":"LM_Laundrette_pasted__pCube65_Laundrymat_0",
			"scale":[
				0.05000000074505806,
				0.05000000074505806,
				0.05000000074505806
			]
		},
		{
			"children":[
				0
			],
			"name":"bat"
		}
	],
	"materials":[
		{
			"doubleSided":true,
			"name":"Laundrymat.001",
			"pbrMetallicRoughness":{
				"baseColorTexture":{
					"index":0
				},
				"metallicFactor":0,
				"roughnessFactor":0.4399999976158142
			}
		}
	],
	"meshes":[
		{
			"name":"LM_Laundrette_pasted__pCube65_Laundrymat_0.001",
			"primitives":[
				{
					"attributes":{
						"POSITION":0,
						"NORMAL":1,
						"TEXCOORD_0":2
					},
					"indices":3,
					"material":0
				}
			]
		}
	],
	"textures":[
		{
			"sampler":0,
			"source":0
		}
	],
	"images":[
		{
			"mimeType":"image/png",
			"name":"Laundrymat_baseColor",
			"uri":"Laundrymat_baseColor.png"
		}
	],
	"accessors":[
		{
			"bufferView":0,
			"componentType":5126,
			"count":752,
			"max":[
				609.5480346679688,
				909.3878173828125,
				344.19537353515625
			],
			"min":[
				-629.6023559570312,
				0.769989013671875,
				-863.9540405273438
			],
			"type":"VEC3"
		},
		{
			"bufferView":1,
			"componentType":5126,
			"count":752,
			"type":"VEC3"
		},
		{
			"bufferView":2,
			"componentType":5126,
			"count":752,
			"type":"VEC2"
		},
		{
			"bufferView":3,
			"componentType":5123,
			"count":1458,
			"type":"SCALAR"
		}
	],
	"bufferViews":[
		{
			"buffer":0,
			"byteLength":9024,
			"byteOffset":0,
			"target":34962
		},
		{
			"buffer":0,
			"byteLength":9024,
			"byteOffset":9024,
			"target":34962
		},
		{
			"buffer":0,
			"byteLength":6016,
			"byteOffset":18048,
			"target":34962
		},
		{
			"buffer":0,
			"byteLength":2916,
			"byteOffset":24064,
			"target":34963
		}
	],
	"samplers":[
		{
			"magFilter":9729,
			"minFilter":9987
		}
	],
	"buffers":[
		{
			"byteLength":26980,
			"uri":"scene.bin"
		}
	]
}
