{
	"asset":{
		"generator":"Khronos glTF Blender I/O v4.1.63",
		"version":"2.0"
	},
	"scene":0,
	"scenes":[
		{
			"name":"Scene",
			"nodes":[
				0
			]
		}
	],
	"nodes":[
		{
			"mesh":0,
			"name":"polySurface112_FillerBuildings1_0",
			"scale":[
				0.005151489283889532,
				0.015828153118491173,
				0.005151490215212107
			]
		}
	],
	"materials":[
		{
			"doubleSided":true,
			"name":"FillerBuildings1.001",
			"pbrMetallicRoughness":{
				"baseColorTexture":{
					"index":0
				},
				"metallicFactor":0,
				"roughnessFactor":0.3799999952316284
			}
		},
		{
			"doubleSided":true,
			"emissiveTexture":{
				"index":1
			},
			"name":"FillerBuildings1GLOW.001",
			"pbrMetallicRoughness":{
				"baseColorTexture":{
					"index":2
				},
				"metallicFactor":0,
				"roughnessFactor":0.25999999046325684
			}
		}
	],
	"meshes":[
		{
			"name":"polySurface112_FillerBuildings1_0.002",
			"primitives":[
				{
					"attributes":{
						"POSITION":0,
						"NORMAL":1,
						"TEXCOORD_0":2
					},
					"indices":3,
					"material":0
				},
				{
					"attributes":{
						"POSITION":4,
						"NORMAL":5,
						"TEXCOORD_0":6
					},
					"indices":7,
					"material":1
				}
			]
		}
	],
	"textures":[
		{
			"sampler":0,
			"source":0
		},
		{
			"sampler":0,
			"source":0
		},
		{
			"sampler":0,
			"source":0
		}
	],
	"images":[
		{
			"mimeType":"image/png",
			"name":"FillerBuildings1_baseColor",
			"uri":"FillerBuildings1_baseColor.png"
		}
	],
	"accessors":[
		{
			"bufferView":0,
			"componentType":5126,
			"count":852,
			"max":[
				1771.300048828125,
				555.2108154296875,
				1088.061279296875
			],
			"min":[
				-1743.008544921875,
				2.750213623046875,
				-871.2669067382812
			],
			"type":"VEC3"
		},
		{
			"bufferView":1,
			"componentType":5126,
			"count":852,
			"type":"VEC3"
		},
		{
			"bufferView":2,
			"componentType":5126,
			"count":852,
			"type":"VEC2"
		},
		{
			"bufferView":3,
			"componentType":5123,
			"count":1440,
			"type":"SCALAR"
		},
		{
			"bufferView":4,
			"componentType":5126,
			"count":28,
			"max":[
				-640.965576171875,
				448.9400329589844,
				886.5602416992188
			],
			"min":[
				-1721.240966796875,
				260.2251892089844,
				-828.3704223632812
			],
			"type":"VEC3"
		},
		{
			"bufferView":5,
			"componentType":5126,
			"count":28,
			"type":"VEC3"
		},
		{
			"bufferView":6,
			"componentType":5126,
			"count":28,
			"type":"VEC2"
		},
		{
			"bufferView":7,
			"componentType":5123,
			"count":42,
			"type":"SCALAR"
		}
	],
	"bufferViews":[
		{
			"buffer":0,
			"byteLength":10224,
			"byteOffset":0,
			"target":34962
		},
		{
			"buffer":0,
			"byteLength":10224,
			"byteOffset":10224,
			"target":34962
		},
		{
			"buffer":0,
			"byteLength":6816,
			"byteOffset":20448,
			"target":34962
		},
		{
			"buffer":0,
			"byteLength":2880,
			"byteOffset":27264,
			"target":34963
		},
		{
			"buffer":0,
			"byteLength":336,
			"byteOffset":30144,
			"target":34962
		},
		{
			"buffer":0,
			"byteLength":336,
			"byteOffset":30480,
			"target":34962
		},
		{
			"buffer":0,
			"byteLength":224,
			"byteOffset":30816,
			"target":34962
		},
		{
			"buffer":0,
			"byteLength":84,
			"byteOffset":31040,
			"target":34963
		}
	],
	"samplers":[
		{
			"magFilter":9729,
			"minFilter":9987
		}
	],
	"buffers":[
		{
			"byteLength":31124,
			"uri":"scene.bin"
		}
	]
}
