{
	"asset":{
		"generator":"Khronos glTF Blender I/O v4.1.63",
		"version":"2.0"
	},
	"scene":0,
	"scenes":[
		{
			"name":"Scene",
			"nodes":[
				0
			]
		}
	],
	"nodes":[
		{
			"mesh":0,
			"name":"pasted__polySurface13_FishFactory_0.003",
			"rotation":[
				0,
				1,
				0,
				0
			],
			"scale":[
				0.005000001285225153,
				0.005000000819563866,
				0.005000000353902578
			]
		}
	],
	"materials":[
		{
			"doubleSided":true,
			"name":"FishFactory.001",
			"pbrMetallicRoughness":{
				"baseColorTexture":{
					"index":0
				},
				"metallicFactor":0,
				"roughnessFactor":0.38999998569488525
			}
		},
		{
			"doubleSided":true,
			"emissiveFactor":[
				0.6000000238418579,
				0.6000000238418579,
				0.6000000238418579
			],
			"emissiveTexture":{
				"index":1
			},
			"name":"FishFactory1GLOW.001",
			"pbrMetallicRoughness":{
				"baseColorTexture":{
					"index":2
				},
				"metallicFactor":0,
				"roughnessFactor":0.07000000029802322
			}
		}
	],
	"meshes":[
		{
			"name":"pasted__polySurface13_FishFactory_0.007",
			"primitives":[
				{
					"attributes":{
						"POSITION":0,
						"NORMAL":1,
						"TEXCOORD_0":2
					},
					"indices":3,
					"material":0
				},
				{
					"attributes":{
						"POSITION":4,
						"NORMAL":5,
						"TEXCOORD_0":6
					},
					"indices":7,
					"material":1
				}
			]
		}
	],
	"textures":[
		{
			"sampler":0,
			"source":0
		},
		{
			"sampler":0,
			"source":0
		},
		{
			"sampler":0,
			"source":0
		}
	],
	"images":[
		{
			"mimeType":"image/png",
			"name":"FishFactory_baseColor",
			"uri":"FishFactory_baseColor.png"
		}
	],
	"accessors":[
		{
			"bufferView":0,
			"componentType":5126,
			"count":349,
			"max":[
				1809.513916015625,
				1779.183837890625,
				825.4694213867188
			],
			"min":[
				-1790.488037109375,
				2.97540283203125,
				-804.7217407226562
			],
			"type":"VEC3"
		},
		{
			"bufferView":1,
			"componentType":5126,
			"count":349,
			"type":"VEC3"
		},
		{
			"bufferView":2,
			"componentType":5126,
			"count":349,
			"type":"VEC2"
		},
		{
			"bufferView":3,
			"componentType":5123,
			"count":549,
			"type":"SCALAR"
		},
		{
			"bufferView":4,
			"componentType":5126,
			"count":4,
			"max":[
				303.234619140625,
				1234.1767578125,
				807.4801635742188
			],
			"min":[
				164.11448669433594,
				944.0227661132812,
				807.4801635742188
			],
			"type":"VEC3"
		},
		{
			"bufferView":5,
			"componentType":5126,
			"count":4,
			"type":"VEC3"
		},
		{
			"bufferView":6,
			"componentType":5126,
			"count":4,
			"type":"VEC2"
		},
		{
			"bufferView":7,
			"componentType":5123,
			"count":6,
			"type":"SCALAR"
		}
	],
	"bufferViews":[
		{
			"buffer":0,
			"byteLength":4188,
			"byteOffset":0,
			"target":34962
		},
		{
			"buffer":0,
			"byteLength":4188,
			"byteOffset":4188,
			"target":34962
		},
		{
			"buffer":0,
			"byteLength":2792,
			"byteOffset":8376,
			"target":34962
		},
		{
			"buffer":0,
			"byteLength":1098,
			"byteOffset":11168,
			"target":34963
		},
		{
			"buffer":0,
			"byteLength":48,
			"byteOffset":12268,
			"target":34962
		},
		{
			"buffer":0,
			"byteLength":48,
			"byteOffset":12316,
			"target":34962
		},
		{
			"buffer":0,
			"byteLength":32,
			"byteOffset":12364,
			"target":34962
		},
		{
			"buffer":0,
			"byteLength":12,
			"byteOffset":12396,
			"target":34963
		}
	],
	"samplers":[
		{
			"magFilter":9729,
			"minFilter":9987
		}
	],
	"buffers":[
		{
			"byteLength":12408,
			"uri":"scene.bin"
		}
	]
}
