{
	"asset":{
		"generator":"Khronos glTF Blender I/O v4.1.63",
		"version":"2.0"
	},
	"scene":0,
	"scenes":[
		{
			"name":"Scene",
			"nodes":[
				1
			]
		}
	],
	"nodes":[
		{
			"mesh":0,
			"name":"objet",
			"scale":[
				0.6976497173309326,
				0.6976496577262878,
				0.6976496577262878
			]
		},
		{
			"children":[
				0
			],
			"name":"Car"
		}
	],
	"materials":[
		{
			"doubleSided":true,
			"emissiveFactor":[
				0.10000000149011612,
				0.10000000149011612,
				0.10000000149011612
			],
			"emissiveTexture":{
				"index":0
			},
			"name":"elise",
			"pbrMetallicRoughness":{
				"baseColorTexture":{
					"index":1
				},
				"metallicFactor":0.7400000095367432,
				"roughnessFactor":0.07999999821186066
			}
		},
		{
			"doubleSided":true,
			"name":"Tire",
			"pbrMetallicRoughness":{
				"baseColorTexture":{
					"index":2
				},
				"metallicFactor":0
			}
		}
	],
	"meshes":[
		{
			"name":"pasted__GEOM_STEERINGWHEEL_elise_0",
			"primitives":[
				{
					"attributes":{
						"POSITION":0,
						"NORMAL":1,
						"TEXCOORD_0":2
					},
					"indices":3,
					"material":0
				},
				{
					"attributes":{
						"POSITION":4,
						"NORMAL":5,
						"TEXCOORD_0":6
					},
					"indices":7,
					"material":1
				}
			]
		}
	],
	"textures":[
		{
			"sampler":0,
			"source":0
		},
		{
			"sampler":0,
			"source":0
		},
		{
			"sampler":0,
			"source":1
		}
	],
	"images":[
		{
			"mimeType":"image/png",
			"name":"elise_baseColor",
			"uri":"elise_baseColor.png"
		},
		{
			"mimeType":"image/png",
			"name":"Tire_baseColor",
			"uri":"Tire_baseColor.png"
		}
	],
	"accessors":[
		{
			"bufferView":0,
			"componentType":5126,
			"count":5156,
			"max":[
				1.1476304531097412,
				1.483135461807251,
				2.40228271484375
			],
			"min":[
				-1.1244337558746338,
				0.21334433555603027,
				-2.4459075927734375
			],
			"type":"VEC3"
		},
		{
			"bufferView":1,
			"componentType":5126,
			"count":5156,
			"type":"VEC3"
		},
		{
			"bufferView":2,
			"componentType":5126,
			"count":5156,
			"type":"VEC2"
		},
		{
			"bufferView":3,
			"componentType":5123,
			"count":12921,
			"type":"SCALAR"
		},
		{
			"bufferView":4,
			"componentType":5126,
			"count":2030,
			"max":[
				1.1283814907073975,
				0.7902193069458008,
				1.875244140625
			],
			"min":[
				-1.1053259372711182,
				0.01316070556640625,
				-1.837005615234375
			],
			"type":"VEC3"
		},
		{
			"bufferView":5,
			"componentType":5126,
			"count":2030,
			"type":"VEC3"
		},
		{
			"bufferView":6,
			"componentType":5126,
			"count":2030,
			"type":"VEC2"
		},
		{
			"bufferView":7,
			"componentType":5123,
			"count":5568,
			"type":"SCALAR"
		}
	],
	"bufferViews":[
		{
			"buffer":0,
			"byteLength":61872,
			"byteOffset":0,
			"target":34962
		},
		{
			"buffer":0,
			"byteLength":61872,
			"byteOffset":61872,
			"target":34962
		},
		{
			"buffer":0,
			"byteLength":41248,
			"byteOffset":123744,
			"target":34962
		},
		{
			"buffer":0,
			"byteLength":25842,
			"byteOffset":164992,
			"target":34963
		},
		{
			"buffer":0,
			"byteLength":24360,
			"byteOffset":190836,
			"target":34962
		},
		{
			"buffer":0,
			"byteLength":24360,
			"byteOffset":215196,
			"target":34962
		},
		{
			"buffer":0,
			"byteLength":16240,
			"byteOffset":239556,
			"target":34962
		},
		{
			"buffer":0,
			"byteLength":11136,
			"byteOffset":255796,
			"target":34963
		}
	],
	"samplers":[
		{
			"magFilter":9729,
			"minFilter":9987
		}
	],
	"buffers":[
		{
			"byteLength":266932,
			"uri":"scene.bin"
		}
	]
}
