{
  "accessors": [
    {
      "bufferView": 2,
      "componentType": 5126,
      "count": 712,
      "max": [
        0.39274588227272034,
        0.39274588227272034,
        2.9370157718658447
      ],
      "min": [
        -0.39274588227272034,
        -0.39274588227272034,
        0.0
      ],
      "type": "VEC3"
    },
    {
      "bufferView": 2,
      "byteOffset": 8544,
      "componentType": 5126,
      "count": 712,
      "max": [
        1.0,
        1.0,
        1.0
      ],
      "min": [
        -1.0,
        -1.0,
        -1.0
      ],
      "type": "VEC3"
    },
    {
      "bufferView": 3,
      "componentType": 5126,
      "count": 712,
      "max": [
        1.0,
        1.0,
        1.0,
        1.0
      ],
      "min": [
        -1.0,
        -1.0,
        -0.0979500412940979,
        1.0
      ],
      "type": "VEC4"
    },
    {
      "bufferView": 1,
      "componentType": 5126,
      "count": 712,
      "max": [
        0.995300829410553,
        0.9950643181800842
      ],
      "min": [
        0.2471558153629303,
        0.010007831268012524
      ],
      "type": "VEC2"
    },
    {
      "bufferView": 1,
      "byteOffset": 5696,
      "componentType": 5126,
      "count": 712,
      "max": [
        0.995300829410553,
        0.9950643181800842
      ],
      "min": [
        0.2471558153629303,
        0.010007831268012524
      ],
      "type": "VEC2"
    },
    {
      "bufferView": 1,
      "byteOffset": 11392,
      "componentType": 5126,
      "count": 712,
      "max": [
        0.995300829410553,
        0.9950643181800842
      ],
      "min": [
        0.2471558153629303,
        0.010007831268012524
      ],
      "type": "VEC2"
    },
    {
      "bufferView": 0,
      "componentType": 5125,
      "count": 3156,
      "type": "SCALAR"
    }
  ],
  "asset": {
    "extras": {
      "author": "Kigha (https://sketchfab.com/Kigha)",
      "license": "CC-BY-4.0 (http://creativecommons.org/licenses/by/4.0/)",
      "source": "https://sketchfab.com/3d-models/357-bullet-d15a23bc4ae240ae90759992e06e12e5",
      "title": "357 Bullet"
    },
    "generator": "Sketchfab-12.67.0",
    "version": "2.0"
  },
  "bufferViews": [
    {
      "buffer": 0,
      "byteLength": 12624,
      "name": "floatBufferViews",
      "target": 34963
    },
    {
      "buffer": 0,
      "byteLength": 17088,
      "byteOffset": 12624,
      "byteStride": 8,
      "name": "floatBufferViews",
      "target": 34962
    },
    {
      "buffer": 0,
      "byteLength": 17088,
      "byteOffset": 29712,
      "byteStride": 12,
      "name": "floatBufferViews",
      "target": 34962
    },
    {
      "buffer": 0,
      "byteLength": 11392,
      "byteOffset": 46800,
      "byteStride": 16,
      "name": "floatBufferViews",
      "target": 34962
    }
  ],
  "buffers": [
    {
      "byteLength": 58192,
      "uri": "scene.bin"
    }
  ],
  "images": [
    {
      "uri": "textures/Bullet_baseColor.png"
    },
    {
      "uri": "textures/Bullet_metallicRoughness.png"
    },
    {
      "uri": "textures/Bullet_normal.png"
    }
  ],
  "materials": [
    {
      "doubleSided": true,
      "name": "Bullet",
      "normalTexture": {
        "index": 2
      },
      "pbrMetallicRoughness": {
        "baseColorTexture": {
          "index": 0
        },
        "metallicRoughnessTexture": {
          "index": 1
        }
      }
    }
  ],
  "meshes": [
    {
      "name": "Bullet_LOW_Bullet_0",
      "primitives": [
        {
          "attributes": {
            "NORMAL": 1,
            "POSITION": 0,
            "TANGENT": 2,
            "TEXCOORD_0": 3,
            "TEXCOORD_1": 4,
            "TEXCOORD_2": 5
          },
          "indices": 6,
          "material": 0,
          "mode": 4
        }
      ]
    }
  ],
  "nodes": [
    {
      "children": [
        1
      ],
      "matrix": [
        2.220446049250313e-16,
        -1.0,
        -2.220446049250313e-16,
        0.0,
        1.6081226229577292e-16,
        2.220446049250313e-16,
        -1.0,
        0.0,
        1.0,
        2.2204460492503128e-16,
        1.6081226229577296e-16,
        0.0,
        -0.02351551130414009,
        0.023515498265624046,
        3.7001621818778526e-09,
        1.0
      ],
      "name": "Sketchfab_model"
    },
    {
      "children": [
        2
      ],
      "matrix": [
        0.009999999776482582,
        0.0,
        0.0,
        0.0,
        0.0,
        0.0,
        0.009999999776482582,
        0.0,
        0.0,
        -0.009999999776482582,
        0.0,
        0.0,
        0.0,
        0.0,
        0.0,
        1.0
      ],
      "name": "Bullet_357.fbx"
    },
    {
      "children": [
        3
      ],
      "name": "RootNode"
    },
    {
      "children": [
        4
      ],
      "matrix": [
        1.601323127746582,
        0.0,
        0.0,
        0.0,
        0.0,
        -2.608886518983256e-07,
        -1.601323127746561,
        0.0,
        0.0,
        1.601323127746561,
        -2.608886518983256e-07,
        0.0,
        0.0,
        0.0,
        0.0,
        1.0
      ],
      "name": "Bullet_LOW"
    },
    {
      "mesh": 0,
      "name": "Bullet_LOW_Bullet_0"
    }
  ],
  "samplers": [
    {
      "magFilter": 9729,
      "minFilter": 9987,
      "wrapS": 10497,
      "wrapT": 10497
    }
  ],
  "scene": 0,
  "scenes": [
    {
      "name": "Sketchfab_Scene",
      "nodes": [
        0
      ]
    }
  ],
  "textures": [
    {
      "sampler": 0,
      "source": 0
    },
    {
      "sampler": 0,
      "source": 1
    },
    {
      "sampler": 0,
      "source": 2
    }
  ]
}
