{
	"asset":{
		"generator":"Khronos glTF Blender I/O v4.1.63",
		"version":"2.0"
	},
	"scene":0,
	"scenes":[
		{
			"name":"Scene",
			"nodes":[
				9
			]
		}
	],
	"nodes":[
		{
			"mesh":0,
			"name":"all_Mat_0",
			"scale":[
				6.972829818725586,
				6.972827434539795,
				6.972827434539795
			],
			"translation":[
				-39.269527435302734,
				283.238525390625,
				-3.0517576306010596e-05
			]
		},
		{
			"children":[
				0
			],
			"name":"all",
			"translation":[
				39.26898956298828,
				29.999998092651367,
				0
			]
		},
		{
			"name":"01",
			"translation":[
				-39.268985748291016,
				0.5833797454833984,
				3.0517578125e-05
			]
		},
		{
			"name":"02",
			"translation":[
				78.10157775878906,
				2.199159622192383,
				3.0517578125e-05
			]
		},
		{
			"children":[
				2,
				3
			],
			"name":"base",
			"translation":[
				39.26898956298828,
				29.999998092651367,
				-168.1449432373047
			]
		},
		{
			"name":"Object_4",
			"translation":[
				5.7220458984375e-06,
				-2.86102294921875e-06,
				0
			]
		},
		{
			"children":[
				5
			],
			"name":"CINEMA_4D_Editor",
			"rotation":[
				-0.022003168240189552,
				0.3049245774745941,
				-0.06852638721466064,
				0.9496530890464783
			],
			"translation":[
				-151.14645385742188,
				64.31897735595703,
				144.3756561279297
			]
		},
		{
			"children":[
				1,
				4,
				6
			],
			"name":"RootNode.001"
		},
		{
			"children":[
				7
			],
			"name":"3eaa6785e8384ecd9d0d8ba0f7253ebc.fbx",
			"rotation":[
				0.70710688829422,
				0,
				0,
				0.7071066498756409
			],
			"scale":[
				0.009999999776482582,
				0.010000000707805157,
				0.010000000707805157
			]
		},
		{
			"children":[
				8
			],
			"name":"Sketchfab_model.001",
			"rotation":[
				-0.70710688829422,
				0,
				0,
				0.7071066498756409
			]
		}
	],
	"materials":[
		{
			"doubleSided":true,
			"name":"material",
			"normalTexture":{
				"index":0
			},
			"pbrMetallicRoughness":{
				"baseColorTexture":{
					"index":1
				},
				"metallicFactor":0.284953236579895,
				"metallicRoughnessTexture":{
					"index":2
				}
			}
		}
	],
	"meshes":[
		{
			"name":"all_Mat_0",
			"primitives":[
				{
					"attributes":{
						"POSITION":0,
						"NORMAL":1,
						"TEXCOORD_0":2
					},
					"indices":3,
					"material":0
				}
			]
		}
	],
	"textures":[
		{
			"sampler":0,
			"source":0
		},
		{
			"sampler":0,
			"source":1
		},
		{
			"sampler":0,
			"source":2
		}
	],
	"images":[
		{
			"mimeType":"image/png",
			"name":"Image_2",
			"uri":"Image_2.png"
		},
		{
			"mimeType":"image/png",
			"name":"Image_0",
			"uri":"Image_0.png"
		},
		{
			"mimeType":"image/png",
			"name":"Image_1",
			"uri":"Image_1.png"
		}
	],
	"accessors":[
		{
			"bufferView":0,
			"componentType":5126,
			"count":26453,
			"max":[
				1999.957763671875,
				19.931884765625,
				6.458091735839844
			],
			"min":[
				-1997.64208984375,
				-44.52434158325195,
				-5.994560241699219
			],
			"type":"VEC3"
		},
		{
			"bufferView":1,
			"componentType":5126,
			"count":26453,
			"type":"VEC3"
		},
		{
			"bufferView":2,
			"componentType":5126,
			"count":26453,
			"type":"VEC2"
		},
		{
			"bufferView":3,
			"componentType":5123,
			"count":70266,
			"type":"SCALAR"
		}
	],
	"bufferViews":[
		{
			"buffer":0,
			"byteLength":317436,
			"byteOffset":0,
			"target":34962
		},
		{
			"buffer":0,
			"byteLength":317436,
			"byteOffset":317436,
			"target":34962
		},
		{
			"buffer":0,
			"byteLength":211624,
			"byteOffset":634872,
			"target":34962
		},
		{
			"buffer":0,
			"byteLength":140532,
			"byteOffset":846496,
			"target":34963
		}
	],
	"samplers":[
		{
			"magFilter":9729,
			"minFilter":9987
		}
	],
	"buffers":[
		{
			"byteLength":987028,
			"uri":"scene.bin"
		}
	]
}
