{
	"asset":{
		"generator":"Khronos glTF Blender I/O v4.1.63",
		"version":"2.0"
	},
	"scene":0,
	"scenes":[
		{
			"name":"Scene",
			"nodes":[
				4
			]
		}
	],
	"nodes":[
		{
			"mesh":0,
			"name":"BD_ConcreteBlock1_RoadsGround_0"
		},
		{
			"children":[
				0
			],
			"name":"BD_ConcreteBlock1"
		},
		{
			"children":[
				1
			],
			"name":"RootNode"
		},
		{
			"children":[
				2
			],
			"name":"9c4529a64bd147c6b03660f10745daad.fbx",
			"rotation":[
				0.70710688829422,
				0,
				0,
				0.7071066498756409
			]
		},
		{
			"children":[
				3
			],
			"name":"Road",
			"rotation":[
				-0.7071069478988647,
				0,
				0,
				0.7071066498756409
			],
			"scale":[
				0.004865726456046104,
				0.004865726456046104,
				0.004865726456046104
			]
		}
	],
	"materials":[
		{
			"doubleSided":true,
			"name":"RoadsGround",
			"pbrMetallicRoughness":{
				"baseColorTexture":{
					"index":0
				},
				"metallicFactor":0,
				"roughnessFactor":0.3700000047683716
			}
		},
		{
			"doubleSided":true,
			"name":"Basketball.001",
			"pbrMetallicRoughness":{
				"baseColorTexture":{
					"index":1
				},
				"metallicFactor":0,
				"roughnessFactor":0.3100000023841858
			}
		}
	],
	"meshes":[
		{
			"name":"BD_ConcreteBlock1_RoadsGround_0",
			"primitives":[
				{
					"attributes":{
						"POSITION":0,
						"NORMAL":1,
						"TEXCOORD_0":2
					},
					"indices":3,
					"material":0
				},
				{
					"attributes":{
						"POSITION":4,
						"NORMAL":5,
						"TEXCOORD_0":6
					},
					"indices":7,
					"material":1
				}
			]
		}
	],
	"textures":[
		{
			"sampler":0,
			"source":0
		},
		{
			"sampler":0,
			"source":1
		}
	],
	"images":[
		{
			"mimeType":"image/png",
			"name":"RoadsGround_baseColor",
			"uri":"RoadsGround_baseColor.png"
		},
		{
			"mimeType":"image/png",
			"name":"Basketball_baseColor",
			"uri":"Basketball_baseColor.png"
		}
	],
	"accessors":[
		{
			"bufferView":0,
			"componentType":5126,
			"count":6861,
			"max":[
				17200,
				20.02466583251953,
				950.00048828125
			],
			"min":[
				-38600,
				-9.5367431640625e-06,
				-22450
			],
			"type":"VEC3"
		},
		{
			"bufferView":1,
			"componentType":5126,
			"count":6861,
			"type":"VEC3"
		},
		{
			"bufferView":2,
			"componentType":5126,
			"count":6861,
			"type":"VEC2"
		},
		{
			"bufferView":3,
			"componentType":5123,
			"count":13590,
			"type":"SCALAR"
		},
		{
			"bufferView":4,
			"componentType":5126,
			"count":26,
			"max":[
				-7999.5,
				20.03699493408203,
				-8050.6748046875
			],
			"min":[
				-9801.8408203125,
				20.018497467041016,
				-11655.326171875
			],
			"type":"VEC3"
		},
		{
			"bufferView":5,
			"componentType":5126,
			"count":26,
			"type":"VEC3"
		},
		{
			"bufferView":6,
			"componentType":5126,
			"count":26,
			"type":"VEC2"
		},
		{
			"bufferView":7,
			"componentType":5123,
			"count":48,
			"type":"SCALAR"
		}
	],
	"bufferViews":[
		{
			"buffer":0,
			"byteLength":82332,
			"byteOffset":0,
			"target":34962
		},
		{
			"buffer":0,
			"byteLength":82332,
			"byteOffset":82332,
			"target":34962
		},
		{
			"buffer":0,
			"byteLength":54888,
			"byteOffset":164664,
			"target":34962
		},
		{
			"buffer":0,
			"byteLength":27180,
			"byteOffset":219552,
			"target":34963
		},
		{
			"buffer":0,
			"byteLength":312,
			"byteOffset":246732,
			"target":34962
		},
		{
			"buffer":0,
			"byteLength":312,
			"byteOffset":247044,
			"target":34962
		},
		{
			"buffer":0,
			"byteLength":208,
			"byteOffset":247356,
			"target":34962
		},
		{
			"buffer":0,
			"byteLength":96,
			"byteOffset":247564,
			"target":34963
		}
	],
	"samplers":[
		{
			"magFilter":9729,
			"minFilter":9987
		}
	],
	"buffers":[
		{
			"byteLength":247660,
			"uri":"scene.bin"
		}
	]
}
