{
	"asset":{
		"generator":"Khronos glTF Blender I/O v4.1.63",
		"version":"2.0"
	},
	"scene":0,
	"scenes":[
		{
			"name":"Scene",
			"nodes":[
				0
			]
		}
	],
	"nodes":[
		{
			"mesh":0,
			"name":"polySurface34_FillerBuildings1_0.001",
			"scale":[
				0.0015111130196601152,
				0.004276721738278866,
				0.0030976219568401575
			]
		}
	],
	"materials":[
		{
			"doubleSided":true,
			"name":"FillerBuildings1.001",
			"pbrMetallicRoughness":{
				"baseColorTexture":{
					"index":0
				},
				"metallicFactor":0,
				"roughnessFactor":0.3799999952316284
			}
		},
		{
			"doubleSided":true,
			"emissiveTexture":{
				"index":1
			},
			"name":"FillerBuildings1GLOW.001",
			"pbrMetallicRoughness":{
				"baseColorTexture":{
					"index":2
				},
				"metallicFactor":0,
				"roughnessFactor":0.25999999046325684
			}
		}
	],
	"meshes":[
		{
			"name":"polySurface34_FillerBuildings1_0.006",
			"primitives":[
				{
					"attributes":{
						"POSITION":0,
						"NORMAL":1,
						"TEXCOORD_0":2
					},
					"indices":3,
					"material":0
				},
				{
					"attributes":{
						"POSITION":4,
						"NORMAL":5,
						"TEXCOORD_0":6
					},
					"indices":7,
					"material":1
				}
			]
		}
	],
	"textures":[
		{
			"sampler":0,
			"source":0
		},
		{
			"sampler":0,
			"source":0
		},
		{
			"sampler":0,
			"source":0
		}
	],
	"images":[
		{
			"mimeType":"image/png",
			"name":"FillerBuildings1_baseColor",
			"uri":"FillerBuildings1_baseColor.png"
		}
	],
	"accessors":[
		{
			"bufferView":0,
			"componentType":5126,
			"count":846,
			"max":[
				2736.113525390625,
				2051.104736328125,
				1580.025390625
			],
			"min":[
				-3392.888427734375,
				6.4486083984375,
				-1421.568359375
			],
			"type":"VEC3"
		},
		{
			"bufferView":1,
			"componentType":5126,
			"count":846,
			"type":"VEC3"
		},
		{
			"bufferView":2,
			"componentType":5126,
			"count":846,
			"type":"VEC2"
		},
		{
			"bufferView":3,
			"componentType":5123,
			"count":1452,
			"type":"SCALAR"
		},
		{
			"bufferView":4,
			"componentType":5126,
			"count":44,
			"max":[
				2671.886962890625,
				1657.7967529296875,
				1490.40234375
			],
			"min":[
				-3321.864990234375,
				561.4060668945312,
				-1388.392578125
			],
			"type":"VEC3"
		},
		{
			"bufferView":5,
			"componentType":5126,
			"count":44,
			"type":"VEC3"
		},
		{
			"bufferView":6,
			"componentType":5126,
			"count":44,
			"type":"VEC2"
		},
		{
			"bufferView":7,
			"componentType":5123,
			"count":66,
			"type":"SCALAR"
		}
	],
	"bufferViews":[
		{
			"buffer":0,
			"byteLength":10152,
			"byteOffset":0,
			"target":34962
		},
		{
			"buffer":0,
			"byteLength":10152,
			"byteOffset":10152,
			"target":34962
		},
		{
			"buffer":0,
			"byteLength":6768,
			"byteOffset":20304,
			"target":34962
		},
		{
			"buffer":0,
			"byteLength":2904,
			"byteOffset":27072,
			"target":34963
		},
		{
			"buffer":0,
			"byteLength":528,
			"byteOffset":29976,
			"target":34962
		},
		{
			"buffer":0,
			"byteLength":528,
			"byteOffset":30504,
			"target":34962
		},
		{
			"buffer":0,
			"byteLength":352,
			"byteOffset":31032,
			"target":34962
		},
		{
			"buffer":0,
			"byteLength":132,
			"byteOffset":31384,
			"target":34963
		}
	],
	"samplers":[
		{
			"magFilter":9729,
			"minFilter":9987
		}
	],
	"buffers":[
		{
			"byteLength":31516,
			"uri":"scene.bin"
		}
	]
}
