{
	"asset":{
		"generator":"Khronos glTF Blender I/O v4.1.63",
		"version":"2.0"
	},
	"scene":0,
	"scenes":[
		{
			"name":"Scene",
			"nodes":[
				0
			]
		}
	],
	"nodes":[
		{
			"mesh":0,
			"name":"polySurface3_Paramount1GLOW_0",
			"scale":[
				0.005128759425133467,
				0.005128760356456041,
				0.005128760356456041
			]
		}
	],
	"materials":[
		{
			"doubleSided":true,
			"emissiveFactor":[
				0.10000000149011612,
				0.10000000149011612,
				0.10000000149011612
			],
			"emissiveTexture":{
				"index":0
			},
			"name":"Paramount1GLOW.003",
			"pbrMetallicRoughness":{
				"baseColorTexture":{
					"index":1
				},
				"metallicFactor":0,
				"roughnessFactor":0.46000000834465027
			}
		},
		{
			"doubleSided":true,
			"name":"Paramount.003",
			"pbrMetallicRoughness":{
				"baseColorTexture":{
					"index":2
				},
				"metallicFactor":0,
				"roughnessFactor":0.5699999928474426
			}
		}
	],
	"meshes":[
		{
			"name":"polySurface3_Paramount1GLOW_0.006",
			"primitives":[
				{
					"attributes":{
						"POSITION":0,
						"NORMAL":1,
						"TEXCOORD_0":2
					},
					"indices":3,
					"material":0
				},
				{
					"attributes":{
						"POSITION":4,
						"NORMAL":5,
						"TEXCOORD_0":6
					},
					"indices":7,
					"material":1
				}
			]
		}
	],
	"textures":[
		{
			"sampler":0,
			"source":0
		},
		{
			"sampler":0,
			"source":0
		},
		{
			"sampler":0,
			"source":0
		}
	],
	"images":[
		{
			"mimeType":"image/png",
			"name":"Paramount_baseColor",
			"uri":"Paramount_baseColor.png"
		}
	],
	"accessors":[
		{
			"bufferView":0,
			"componentType":5126,
			"count":148,
			"max":[
				710.2586669921875,
				1497.843505859375,
				1140.4501953125
			],
			"min":[
				-983.9659423828125,
				324.860107421875,
				-938.404296875
			],
			"type":"VEC3"
		},
		{
			"bufferView":1,
			"componentType":5126,
			"count":148,
			"type":"VEC3"
		},
		{
			"bufferView":2,
			"componentType":5126,
			"count":148,
			"type":"VEC2"
		},
		{
			"bufferView":3,
			"componentType":5123,
			"count":282,
			"type":"SCALAR"
		},
		{
			"bufferView":4,
			"componentType":5126,
			"count":825,
			"max":[
				801.3699951171875,
				1977.205810546875,
				1126.88671875
			],
			"min":[
				-1005.9307861328125,
				2.75146484375,
				-941.4951171875
			],
			"type":"VEC3"
		},
		{
			"bufferView":5,
			"componentType":5126,
			"count":825,
			"type":"VEC3"
		},
		{
			"bufferView":6,
			"componentType":5126,
			"count":825,
			"type":"VEC2"
		},
		{
			"bufferView":7,
			"componentType":5123,
			"count":1308,
			"type":"SCALAR"
		}
	],
	"bufferViews":[
		{
			"buffer":0,
			"byteLength":1776,
			"byteOffset":0,
			"target":34962
		},
		{
			"buffer":0,
			"byteLength":1776,
			"byteOffset":1776,
			"target":34962
		},
		{
			"buffer":0,
			"byteLength":1184,
			"byteOffset":3552,
			"target":34962
		},
		{
			"buffer":0,
			"byteLength":564,
			"byteOffset":4736,
			"target":34963
		},
		{
			"buffer":0,
			"byteLength":9900,
			"byteOffset":5300,
			"target":34962
		},
		{
			"buffer":0,
			"byteLength":9900,
			"byteOffset":15200,
			"target":34962
		},
		{
			"buffer":0,
			"byteLength":6600,
			"byteOffset":25100,
			"target":34962
		},
		{
			"buffer":0,
			"byteLength":2616,
			"byteOffset":31700,
			"target":34963
		}
	],
	"samplers":[
		{
			"magFilter":9729,
			"minFilter":9987
		}
	],
	"buffers":[
		{
			"byteLength":34316,
			"uri":"scene.bin"
		}
	]
}
