{
	"asset":{
		"generator":"Khronos glTF Blender I/O v4.1.63",
		"version":"2.0"
	},
	"scene":0,
	"scenes":[
		{
			"name":"Scene",
			"nodes":[
				0
			]
		}
	],
	"nodes":[
		{
			"mesh":0,
			"name":"Filler_Apartments2_FillerBuildings1_0.001",
			"scale":[
				0.004999999888241291,
				0.005000000819563866,
				0.005000000819563866
			]
		}
	],
	"materials":[
		{
			"doubleSided":true,
			"name":"FillerBuildings1.001",
			"pbrMetallicRoughness":{
				"baseColorTexture":{
					"index":0
				},
				"metallicFactor":0,
				"roughnessFactor":0.3799999952316284
			}
		},
		{
			"doubleSided":true,
			"emissiveTexture":{
				"index":1
			},
			"name":"FillerBuildings1GLOW.001",
			"pbrMetallicRoughness":{
				"baseColorTexture":{
					"index":2
				},
				"metallicFactor":0,
				"roughnessFactor":0.25999999046325684
			}
		}
	],
	"meshes":[
		{
			"name":"Filler_Apartments2_FillerBuildings1_0.004",
			"primitives":[
				{
					"attributes":{
						"POSITION":0,
						"NORMAL":1,
						"TEXCOORD_0":2
					},
					"indices":3,
					"material":0
				},
				{
					"attributes":{
						"POSITION":4,
						"NORMAL":5,
						"TEXCOORD_0":6
					},
					"indices":7,
					"material":1
				}
			]
		}
	],
	"textures":[
		{
			"sampler":0,
			"source":0
		},
		{
			"sampler":0,
			"source":0
		},
		{
			"sampler":0,
			"source":0
		}
	],
	"images":[
		{
			"mimeType":"image/png",
			"name":"FillerBuildings1_baseColor",
			"uri":"FillerBuildings1_baseColor.png"
		}
	],
	"accessors":[
		{
			"bufferView":0,
			"componentType":5126,
			"count":1502,
			"max":[
				928.4448852539062,
				1392.076171875,
				1089.049560546875
			],
			"min":[
				-915.1703491210938,
				-0.07826042175292969,
				-971.145751953125
			],
			"type":"VEC3"
		},
		{
			"bufferView":1,
			"componentType":5126,
			"count":1502,
			"type":"VEC3"
		},
		{
			"bufferView":2,
			"componentType":5126,
			"count":1502,
			"type":"VEC2"
		},
		{
			"bufferView":3,
			"componentType":5123,
			"count":2250,
			"type":"SCALAR"
		},
		{
			"bufferView":4,
			"componentType":5126,
			"count":72,
			"max":[
				916.9058227539062,
				1282.36865234375,
				893.719482421875
			],
			"min":[
				-894.4125366210938,
				479.5902404785156,
				-969.276611328125
			],
			"type":"VEC3"
		},
		{
			"bufferView":5,
			"componentType":5126,
			"count":72,
			"type":"VEC3"
		},
		{
			"bufferView":6,
			"componentType":5126,
			"count":72,
			"type":"VEC2"
		},
		{
			"bufferView":7,
			"componentType":5123,
			"count":108,
			"type":"SCALAR"
		}
	],
	"bufferViews":[
		{
			"buffer":0,
			"byteLength":18024,
			"byteOffset":0,
			"target":34962
		},
		{
			"buffer":0,
			"byteLength":18024,
			"byteOffset":18024,
			"target":34962
		},
		{
			"buffer":0,
			"byteLength":12016,
			"byteOffset":36048,
			"target":34962
		},
		{
			"buffer":0,
			"byteLength":4500,
			"byteOffset":48064,
			"target":34963
		},
		{
			"buffer":0,
			"byteLength":864,
			"byteOffset":52564,
			"target":34962
		},
		{
			"buffer":0,
			"byteLength":864,
			"byteOffset":53428,
			"target":34962
		},
		{
			"buffer":0,
			"byteLength":576,
			"byteOffset":54292,
			"target":34962
		},
		{
			"buffer":0,
			"byteLength":216,
			"byteOffset":54868,
			"target":34963
		}
	],
	"samplers":[
		{
			"magFilter":9729,
			"minFilter":9987
		}
	],
	"buffers":[
		{
			"byteLength":55084,
			"uri":"scene.bin"
		}
	]
}
